<?xml version="1.0" standalone="no"?>
<!DOCTYPE svg PUBLIC "-//W3C//DTD SVG 20010904//EN"
 "http://www.w3.org/TR/2001/REC-SVG-20010904/DTD/svg10.dtd">
<svg version="1.0" xmlns="http://www.w3.org/2000/svg"
 width="482.000000pt" height="517.000000pt" viewBox="0 0 482.000000 517.000000"
 preserveAspectRatio="xMidYMid meet">

<g transform="translate(0.000000,517.000000) scale(0.100000,-0.100000)"
fill="#000000" stroke="none">
<path d="M2715 4811 c-38 -52 -79 -106 -89 -120 -44 -59 -140 -187 -147 -195
-9 -10 -55 23 -138 97 -32 30 -57 45 -62 40 -6 -6 -8 -424 -7 -1039 l3 -1029
24 -40 c29 -48 81 -99 124 -122 50 -26 171 -24 222 4 56 32 88 61 119 110 l26
43 -2 1172 -3 1173 -70 -94z"/>
<path d="M3260 4173 c-79 -90 -112 -245 -74 -353 45 -128 81 -172 204 -242
189 -109 429 -375 543 -604 171 -342 209 -775 100 -1154 -28 -99 -110 -287
-153 -350 -9 -14 -39 -59 -66 -100 -71 -110 -181 -225 -326 -341 -141 -113
-397 -238 -560 -275 -118 -26 -318 -54 -390 -54 -117 0 -322 34 -492 82 -76
22 -283 119 -361 170 -193 126 -345 281 -479 486 -46 71 -133 252 -161 335
-102 310 -99 699 10 1022 44 132 169 353 251 447 70 78 90 137 100 283 6 74 3
105 -15 175 -21 82 -87 220 -109 228 -11 3 -121 -87 -215 -177 -78 -74 -200
-225 -277 -341 -93 -142 -211 -387 -239 -496 -6 -21 -18 -64 -27 -94 -133
-444 -85 -997 125 -1436 177 -369 425 -652 760 -869 213 -138 521 -257 771
-299 214 -35 462 -38 670 -6 194 29 505 132 660 217 209 115 404 268 553 433
114 127 126 142 196 246 152 226 271 515 322 784 22 113 24 152 24 395 0 284
-5 325 -57 515 -56 205 -165 449 -275 615 -126 190 -364 439 -524 548 -19 13
-56 39 -84 59 -50 36 -280 154 -342 176 -30 10 -34 9 -63 -25z"/>
</g>
</svg>
