<svg xmlns="http://www.w3.org/2000/svg" xmlns:xlink="http://www.w3.org/1999/xlink" width="650" zoomAndPan="magnify" viewBox="0 0 487.5 562.499982" height="750" preserveAspectRatio="xMidYMid meet" version="1.0"><defs><clipPath id="e345ec4c8e"><path d="M 98 112.011719 L 487 112.011719 L 487 282 L 98 282 Z M 98 112.011719 " clip-rule="nonzero"/></clipPath><clipPath id="022f661354"><path d="M 0.371094 224 L 390 224 L 390 395 L 0.371094 395 Z M 0.371094 224 " clip-rule="nonzero"/></clipPath><clipPath id="34c1fc8119"><path d="M 97 401 L 191 401 L 191 450.261719 L 97 450.261719 Z M 97 401 " clip-rule="nonzero"/></clipPath></defs><g clip-path="url(#e345ec4c8e)"><path fill="#ffffff" d="M 218.003906 225.449219 C 212.351562 235.382812 207.289062 244.316406 202.183594 253.207031 C 197.480469 261.394531 192.652344 269.519531 188 277.722656 C 186.609375 280.167969 184.921875 281.261719 181.9375 281.230469 C 165.800781 281.074219 149.667969 281.246094 133.546875 281.011719 C 131.6875 280.980469 129.03125 279.703125 128.125 278.1875 C 118.238281 261.441406 108.585938 244.566406 99.042969 227.617188 C 98.292969 226.273438 98.214844 223.777344 98.964844 222.46875 C 119.660156 186.382812 140.449219 150.375 161.429688 114.476562 C 162.257812 113.054688 165.101562 112.121094 167.019531 112.105469 C 192.355469 111.949219 217.675781 112.011719 243.011719 112.011719 C 321.691406 112.011719 400.371094 112.027344 479.050781 112.027344 C 481.550781 112.027344 484.066406 112.027344 487.609375 112.027344 C 485.082031 116.738281 483.082031 120.683594 480.863281 124.503906 C 473.085938 137.914062 465.085938 151.203125 457.496094 164.722656 C 455.761719 167.824219 453.808594 168.714844 450.496094 168.699219 C 407.761719 168.621094 365.023438 168.667969 322.285156 168.667969 C 281.390625 168.683594 240.5 168.714844 199.589844 168.621094 C 196.183594 168.605469 194.339844 169.617188 192.636719 172.675781 C 183.59375 188.769531 174.238281 204.675781 165.023438 220.660156 C 162.757812 224.589844 163.054688 225.121094 167.519531 225.121094 C 181.671875 225.105469 195.824219 225.027344 209.976562 225.027344 C 212.304688 225.042969 214.648438 225.277344 218.003906 225.449219 Z M 218.003906 225.449219 " fill-opacity="1" fill-rule="nonzero"/></g><g clip-path="url(#022f661354)"><path fill="#ffffff" d="M 269.582031 280.730469 C 273.691406 273.464844 277.363281 266.851562 281.144531 260.316406 C 287.421875 249.480469 293.703125 238.625 300.230469 227.941406 C 301.105469 226.492188 303.480469 225.152344 305.183594 225.136719 C 321.300781 224.933594 337.4375 225.074219 353.574219 224.949219 C 356.636719 224.933594 358.417969 225.882812 359.945312 228.613281 C 369.085938 244.800781 378.363281 260.910156 387.734375 276.957031 C 389.484375 279.953125 389.671875 282.148438 387.78125 285.394531 C 367.414062 320.3125 347.214844 355.320312 327.175781 390.441406 C 325.332031 393.667969 323.128906 394.214844 319.972656 394.214844 C 277.238281 394.152344 234.515625 394.136719 191.777344 394.136719 C 129.234375 394.152344 66.691406 394.183594 4.148438 394.199219 C 3.195312 394.199219 2.242188 393.996094 0.679688 393.824219 C 1.289062 392.125 1.585938 390.644531 2.304688 389.394531 C 11.457031 373.363281 20.738281 357.394531 29.8125 341.332031 C 31.421875 338.476562 33.40625 337.558594 36.605469 337.558594 C 120.238281 337.621094 203.867188 337.574219 287.484375 337.667969 C 291.1875 337.667969 293.125 336.652344 295.011719 333.285156 C 303.933594 317.285156 313.257812 301.519531 322.425781 285.660156 C 324.535156 282.011719 324.191406 281.277344 320.066406 281.261719 C 305.074219 281.199219 290.078125 281.214844 275.082031 281.167969 C 273.488281 281.152344 271.878906 280.917969 269.582031 280.730469 Z M 269.582031 280.730469 " fill-opacity="1" fill-rule="nonzero"/></g><path fill="#ffffff" d="M 320.503906 176.277344 C 317.992188 180.878906 316.085938 184.542969 314.023438 188.113281 C 296.371094 218.757812 278.707031 249.386719 261.023438 280.015625 C 252.136719 295.390625 243.183594 310.71875 234.34375 326.128906 C 232.75 328.902344 230.640625 329.933594 227.457031 329.917969 C 208.929688 329.824219 190.390625 329.902344 171.863281 329.871094 C 168.050781 329.871094 167.535156 328.683594 169.582031 325.144531 C 185.234375 298.074219 200.886719 270.984375 216.507812 243.894531 C 228.394531 223.296875 240.359375 202.710938 252.074219 182.015625 C 254.417969 177.867188 257.070312 176.074219 262.085938 176.152344 C 281.019531 176.480469 299.964844 176.277344 320.503906 176.277344 Z M 320.503906 176.277344 " fill-opacity="1" fill-rule="nonzero"/><g clip-path="url(#34c1fc8119)"><path fill="#ffffff" d="M 190.234375 402.042969 C 185.921875 409.558594 182 416.359375 178.097656 423.171875 C 173.691406 430.863281 169.222656 438.519531 164.945312 446.269531 C 163.507812 448.890625 161.726562 450.246094 158.632812 450.246094 C 139.40625 450.183594 120.175781 450.230469 100.945312 450.214844 C 100.183594 450.214844 99.402344 449.902344 97.917969 449.574219 C 100.308594 445.285156 102.398438 441.386719 104.617188 437.550781 C 110.945312 426.574219 117.238281 415.5625 123.800781 404.726562 C 124.691406 403.242188 127.015625 401.761719 128.6875 401.730469 C 148.058594 401.527344 167.425781 401.589844 186.796875 401.605469 C 187.59375 401.605469 188.390625 401.808594 190.234375 402.042969 Z M 190.234375 402.042969 " fill-opacity="1" fill-rule="nonzero"/></g></svg>