<svg xmlns="http://www.w3.org/2000/svg" xmlns:xlink="http://www.w3.org/1999/xlink" width="650" zoomAndPan="magnify" viewBox="0 0 487.5 562.499982" height="750" preserveAspectRatio="xMidYMid meet" version="1.0"><defs><clipPath id="782c8655e4"><path d="M 98 112.011719 L 487 112.011719 L 487 282 L 98 282 Z M 98 112.011719 " clip-rule="nonzero"/></clipPath><clipPath id="1ec4d6d7c5"><path d="M 97 401 L 190 401 L 190 450.261719 L 97 450.261719 Z M 97 401 " clip-rule="nonzero"/></clipPath></defs><g clip-path="url(#782c8655e4)"><path fill="#090a0e" d="M 217.632812 225.449219 C 211.976562 235.382812 206.917969 244.316406 201.808594 253.207031 C 197.109375 261.394531 192.28125 269.519531 187.625 277.722656 C 186.234375 280.167969 184.550781 281.261719 181.566406 281.230469 C 165.429688 281.074219 149.292969 281.246094 133.175781 281.011719 C 131.316406 280.980469 128.660156 279.703125 127.753906 278.1875 C 117.867188 261.441406 108.214844 244.566406 98.667969 227.617188 C 97.917969 226.273438 97.839844 223.777344 98.589844 222.46875 C 119.289062 186.382812 140.078125 150.375 161.054688 114.476562 C 161.882812 113.054688 164.726562 112.121094 166.648438 112.105469 C 191.984375 111.949219 217.304688 112.011719 242.640625 112.011719 C 321.320312 112.011719 400 112.027344 478.679688 112.027344 C 481.179688 112.027344 483.691406 112.027344 487.238281 112.027344 C 484.707031 116.738281 482.707031 120.683594 480.492188 124.503906 C 472.710938 137.914062 464.714844 151.203125 457.121094 164.722656 C 455.390625 167.824219 453.4375 168.714844 450.125 168.699219 C 407.386719 168.621094 364.652344 168.667969 321.914062 168.667969 C 281.019531 168.683594 240.125 168.714844 199.214844 168.621094 C 195.8125 168.605469 193.96875 169.617188 192.265625 172.675781 C 183.222656 188.769531 173.863281 204.675781 164.648438 220.660156 C 162.382812 224.589844 162.679688 225.121094 167.148438 225.121094 C 181.300781 225.105469 195.453125 225.027344 209.605469 225.027344 C 211.929688 225.042969 214.273438 225.277344 217.632812 225.449219 Z M 217.632812 225.449219 " fill-opacity="1" fill-rule="nonzero"/></g><path fill="#090a0e" d="M 269.210938 280.730469 C 273.320312 273.464844 276.988281 266.851562 280.769531 260.316406 C 287.050781 249.480469 293.328125 238.625 299.859375 227.941406 C 300.734375 226.492188 303.105469 225.152344 304.808594 225.136719 C 320.929688 224.933594 337.066406 225.074219 353.199219 224.949219 C 356.261719 224.933594 358.042969 225.882812 359.574219 228.613281 C 368.710938 244.800781 377.992188 260.910156 387.363281 276.957031 C 389.113281 279.953125 389.300781 282.148438 387.410156 285.394531 C 367.039062 320.3125 346.84375 355.320312 326.804688 390.441406 C 324.960938 393.667969 322.757812 394.214844 319.601562 394.214844 C 276.863281 394.152344 234.144531 394.136719 191.40625 394.136719 C 128.863281 394.152344 66.320312 394.183594 3.777344 394.199219 C 2.824219 394.199219 1.871094 393.996094 0.308594 393.824219 C 0.917969 392.125 1.214844 390.644531 1.933594 389.394531 C 11.085938 373.363281 20.363281 357.394531 29.441406 341.332031 C 31.046875 338.476562 33.03125 337.558594 36.234375 337.558594 C 119.867188 337.621094 203.496094 337.574219 287.113281 337.667969 C 290.8125 337.667969 292.75 336.652344 294.640625 333.285156 C 303.558594 317.285156 312.886719 301.519531 322.054688 285.660156 C 324.164062 282.011719 323.820312 281.277344 319.695312 281.261719 C 304.699219 281.199219 289.703125 281.214844 274.710938 281.167969 C 273.117188 281.152344 271.507812 280.917969 269.210938 280.730469 Z M 269.210938 280.730469 " fill-opacity="1" fill-rule="nonzero"/><path fill="#090a0e" d="M 320.132812 176.277344 C 317.617188 180.878906 315.710938 184.542969 313.652344 188.113281 C 296 218.757812 278.332031 249.386719 260.652344 280.015625 C 251.761719 295.390625 242.8125 310.71875 233.972656 326.128906 C 232.378906 328.902344 230.269531 329.933594 227.082031 329.917969 C 208.558594 329.824219 190.015625 329.902344 171.492188 329.871094 C 167.679688 329.871094 167.164062 328.683594 169.210938 325.144531 C 184.863281 298.074219 200.511719 270.984375 216.132812 243.894531 C 228.019531 223.296875 239.984375 202.710938 251.699219 182.015625 C 254.042969 177.867188 256.699219 176.074219 261.714844 176.152344 C 280.644531 176.480469 299.59375 176.277344 320.132812 176.277344 Z M 320.132812 176.277344 " fill-opacity="1" fill-rule="nonzero"/><g clip-path="url(#1ec4d6d7c5)"><path fill="#090a0e" d="M 189.859375 402.042969 C 185.550781 409.558594 181.628906 416.359375 177.722656 423.171875 C 173.316406 430.863281 168.851562 438.519531 164.570312 446.269531 C 163.132812 448.890625 161.351562 450.246094 158.261719 450.246094 C 139.03125 450.183594 119.804688 450.230469 100.574219 450.214844 C 99.808594 450.214844 99.027344 449.902344 97.542969 449.574219 C 99.933594 445.285156 102.027344 441.386719 104.246094 437.550781 C 110.570312 426.574219 116.867188 415.5625 123.425781 404.726562 C 124.316406 403.242188 126.644531 401.761719 128.316406 401.730469 C 147.683594 401.527344 167.054688 401.589844 186.421875 401.605469 C 187.21875 401.605469 188.015625 401.808594 189.859375 402.042969 Z M 189.859375 402.042969 " fill-opacity="1" fill-rule="nonzero"/></g></svg>