<?xml version="1.0" standalone="no"?>
<!DOCTYPE svg PUBLIC "-//W3C//DTD SVG 20010904//EN"
 "http://www.w3.org/TR/2001/REC-SVG-20010904/DTD/svg10.dtd">
<svg version="1.0" xmlns="http://www.w3.org/2000/svg"
 width="484.000000pt" height="274.000000pt" viewBox="0 0 484.000000 274.000000"
 preserveAspectRatio="xMidYMid meet">

<g transform="translate(0.000000,274.000000) scale(0.100000,-0.100000)"
fill="#000000" stroke="none">
<path d="M663 2232 c-94 -109 -181 -210 -193 -225 l-21 -27 904 0 905 0 53 68
c111 142 261 272 403 348 l61 34 -970 0 -970 0 -172 -198z"/>
<path d="M3055 2418 c-442 -82 -792 -408 -904 -843 -128 -498 106 -1030 562
-1275 306 -165 689 -179 1002 -37 246 111 429 285 551 523 l49 95 -28 24 c-47
42 -132 56 -198 33 -44 -15 -97 -55 -104 -79 -12 -38 -125 -168 -192 -221
-166 -132 -328 -188 -543 -188 -227 0 -414 72 -578 225 -116 107 -207 258
-248 410 -26 97 -26 332 0 425 46 166 148 329 274 436 81 69 240 154 337 180
92 25 296 30 386 10 138 -31 263 -89 362 -167 82 -64 198 -75 306 -28 83 35
83 36 -18 142 -168 175 -363 282 -603 331 -86 18 -328 20 -413 4z"/>
<path d="M870 1474 c-196 -69 -183 -52 -102 -142 39 -42 110 -119 159 -170
l88 -92 523 0 522 0 0 194 c0 106 3 208 6 225 l7 31 -539 -1 -539 0 -125 -45z"/>
<path d="M3378 1415 c-24 -16 -42 -40 -53 -70 -17 -42 -17 -48 -1 -88 9 -24
28 -55 42 -68 l26 -24 650 -3 651 -2 -111 82 c-61 46 -111 88 -112 94 0 6 9
19 21 30 12 10 30 31 41 47 l19 27 -568 0 -568 0 -37 -25z"/>
<path d="M260 596 c8 -7 143 -109 299 -225 l284 -211 964 0 c529 0 963 2 963
5 0 2 -24 17 -52 31 -134 68 -330 238 -415 362 l-36 52 -1011 0 c-859 0 -1008
-2 -996 -14z"/>
</g>
</svg>
